# xmcd CD database file
#
# Track frame offsets:
#	150
#	24367
#	46162
#	73030
#	101700
#	129017
#	160725
#	185192
#	214567
#
# Disc length: 3056 seconds
#
# Revision: 0
# Processed by: cddbd v1.5.2PL0 Copyright (c) Steve Scherf et al.
# Submitted via: CDex 1.51
#
DISCID=720bee09
DTITLE=Toine Thys Trio - The End Of Certainty
DYEAR=2010
DGENRE=Jazz
TTITLE0=Bloody Mary
TTITLE1=The Other
TTITLE2=Lazy Afternoon
TTITLE3=All The Things You Are
TTITLE4=Turn Out The Stars
TTITLE5=All Or Nothing At All
TTITLE6=Fishy
TTITLE7=Hermione
TTITLE8=U-Turn
EXTD=YEAR: 2010
EXTT0=
EXTT1=
EXTT2=
EXTT3=
EXTT4=
EXTT5=
EXTT6=
EXTT7=
EXTT8=
PLAYORDER=
